<?xml version="1.0" standalone="no"?><!DOCTYPE svg PUBLIC "-//W3C//DTD SVG 1.1//EN" "http://www.w3.org/Graphics/SVG/1.1/DTD/svg11.dtd"><svg t="1547797169958" class="icon" style="" viewBox="0 0 1024 1024" version="1.1" xmlns="http://www.w3.org/2000/svg" p-id="12191" xmlns:xlink="http://www.w3.org/1999/xlink" width="128" height="128"><defs><style type="text/css"></style></defs><path d="M857.4 722.7c-4 84-73.5 151.2-158.3 151.2H324.8c-84.8 0-154.3-67.1-158.3-151.2h-0.2V299.3h0.2c4-84.1 73.5-151.3 158.3-151.3H640l-68.3 57.7H324.8C269.3 205.9 224 251.3 224 307v408c0 55.7 45.3 101.1 100.8 101.1H699.1c55.6 0 100.8-45.4 100.8-101.1V429.5l57.6-56.8v350h-0.1zM658.4 469l-41.8 44.1c-13.9 14.2-48.9 49.7-60 61.5-11.1 11.8-20.4 21.5-27.6 29.2-7.3 7.6-11.7 12-13 13.1-3.5 3.2-7.5 6.7-12 10.3-4.5 3.6-9.2 6.5-14.1 8.7-4.9 2.6-12 5.6-21.4 9.3-9.4 3.6-19.2 7.1-29.5 10.6s-20 6.4-29.2 9c-9.2 2.5-16.1 4.2-20.6 4.9-9.4 1.1-15.6-0.4-18.8-4.4-3.1-4-4-10.8-2.6-20.1 0.7-5.1 2.4-12.5 5-22.1 2.6-9.6 5.4-19.6 8.3-30 3-10.3 5.8-19.9 8.6-28.6 2.8-8.7 5-14.7 6.8-18 2.1-5 4.4-9.7 7.1-13.9 2.6-4.2 6.3-8.8 11.2-13.9 2.1-2.2 7-7.4 14.6-15.5 7.6-8.2 39.7-40.8 51.2-52.8l38.1-39.8 42.3-44.1 108-112.8 98.4 99.8-109 115.5z m176.5-186c-5.2 5.4-9.8 10.2-14 14.2-4.1 4.1-7.7 7.7-10.7 10.8-3.5 3.6-6.7 6.8-9.7 9.5l-97.9-99.8c5.2-5 11.4-11 18.5-18s13.1-12.5 17.9-16.6c6.1-5 12.4-8.5 18.9-10.5 6-1.9 11.8-2.8 17.6-2.7h1.6c3.2 0.1 6.3 0.4 9.4 1h-0.3 0.3c13.2 2.5 27 9.6 38.7 20.9 6.5 6.3 11.8 13.4 15.6 20.6 5.7 10.7 8.4 21.9 7.8 32.1 0 1.2 0.1 2.5 0.1 3.8 0 5.9-1.1 11.8-3.3 17.7-2.2 5.9-5.7 11.6-10.5 17z m0 0" p-id="12192" fill="#fff"></path></svg>