<?xml version="1.0" encoding="utf-8"?>
<!-- Generator: Adobe Illustrator 21.0.0, SVG Export Plug-In . SVG Version: 6.00 Build 0)  -->
<svg version="1.1" id="图层_1" xmlns="http://www.w3.org/2000/svg" xmlns:xlink="http://www.w3.org/1999/xlink" x="0px" y="0px"
	 viewBox="0 0 1024 1024" style="enable-background:new 0 0 1024 1024;" xml:space="preserve">
<style type="text/css">
	.st0{fill:#007C40;}
	.st1{fill:#013D61;}
	.st2{fill:#FFFFFF;}
</style>
<g>
	<path class="st0" d="M173.4,305.5c0,0,5.1,22.5,18.2,52.5c-32.5,1.6-54.7,7.1-54.7,7.1s42.1,97.4,131.5,141.4
		c29.6,14.5,60.6,21.4,88.9,24c4.7,85.9,41.7,162.9,99.3,219.3v72.3c-38,15.2-79.5,23.4-122.9,23.4C149.3,845.7,0,696.3,0,512
		c0-184.2,149.3-333.7,333.7-333.7c65.3,0,126.3,18.8,177.7,51.3c-0.4,0.4-0.7,0.8-1.2,1.6c-56.2,36-100.8,88.5-127.1,150.5
		c-7.5-7.7-15.5-14.9-24.4-21.6C279.3,299.8,173.4,305.5,173.4,305.5z"/>
	<path class="st0" d="M460.7,524.6c0,0-1.4,0.4-4.1,1v-1.4h3.8C460.5,524.3,460.7,524.6,460.7,524.6z"/>
	<path class="st0" d="M567.4,524.1v1.4c-2.6-0.6-4.1-1-4.1-1s0.1-0.4,0.2-0.5H567.4z"/>
	<path class="st1" d="M1024,512c0,184.3-149.3,333.7-333.7,333.7c-43.4,0-84.9-8.3-122.9-23.4V750c57.6-56.4,94.6-133.5,99.3-219.3
		c28.3-2.6,59.3-9.5,88.9-24c89.5-44,131.5-141.4,131.5-141.4s-22.2-5.5-54.8-7.1c13.2-30.1,18.3-52.5,18.3-52.5
		s-105.9-5.8-185.3,54.6c-8.9,6.7-17,13.9-24.4,21.6c-26.3-62-70.9-114.6-127.1-150.5c-0.5-0.7-0.8-1.2-1.2-1.6
		c51.5-32.6,112.4-51.3,177.7-51.3C874.7,178.3,1024,327.8,1024,512z"/>
	<path class="st0" d="M456.6,525.6V750c-57.6-56.4-94.6-133.5-99.3-219.3C404.5,535.3,444.1,528.2,456.6,525.6z"/>
	<path class="st1" d="M666.8,530.6c-4.7,85.9-41.7,162.9-99.3,219.3V525.6C579.9,528.2,619.5,535.3,666.8,530.6z"/>
	<path class="st1" d="M640.9,381.8c-59.8,60.5-77.6,142.4-77.6,142.4H512c0,0,55.3-66,55.3-147.5c0-72.7-44-133.2-53.5-145.4
		C570,267.2,614.6,319.7,640.9,381.8z"/>
	<path class="st0" d="M512,524.1h-51.3c0,0-17.8-81.9-77.6-142.4c26.3-62,70.9-114.6,127.1-150.5c-9.5,12.1-53.5,72.6-53.5,145.4
		C456.7,458.1,512,524.1,512,524.1z"/>
	<path class="st1" d="M460.7,524.6c0,0-1.4,0.4-4.1,1v-1.4h3.8C460.5,524.3,460.7,524.6,460.7,524.6z"/>
	<path class="st1" d="M567.4,524.1v1.4c-2.6-0.6-4.1-1-4.1-1s0.1-0.4,0.2-0.5H567.4z"/>
	<path class="st2" d="M567.3,376.6c0,81.5-55.3,147.5-55.3,147.5s-55.3-66-55.3-147.5c0-72.7,44-133.2,53.5-145.4
		c0.6-0.5,1.2-0.8,1.8-1.2c0.6,0.4,1.2,0.7,1.8,1.2C523.3,243.4,567.3,303.9,567.3,376.6z"/>
	<path class="st2" d="M887.2,365.2c0,0-42.1,97.4-131.5,141.4c-29.6,14.5-60.6,21.4-88.9,24c0.5-6.1,0.6-12.4,0.6-18.6
		c0-46.2-9.4-90.2-26.5-130.2c7.5-7.7,15.5-14.9,24.4-21.6c79.4-60.4,185.3-54.6,185.3-54.6s-5.1,22.5-18.3,52.5
		C864.9,359.7,887.2,365.2,887.2,365.2z"/>
	<path class="st2" d="M667.4,512c0,6.3-0.1,12.5-0.6,18.6c-47.3,4.7-86.8-2.4-99.3-5.1v-1.4h-4.1c0,0,17.8-81.9,77.6-142.4
		C658,421.8,667.4,465.8,667.4,512z"/>
	<path class="st2" d="M567.4,524.1v1.4c-2.6-0.6-4.1-1-4.1-1s0.1-0.4,0.2-0.5H567.4z"/>
	<path class="st2" d="M460.7,524.1h-4.1v1.4c-12.5,2.6-52.1,9.7-99.3,5.1c-0.5-6.1-0.6-12.4-0.6-18.6c0-46.2,9.4-90.2,26.5-130.2
		C442.9,442.3,460.7,524.1,460.7,524.1z"/>
	<path class="st2" d="M356.6,512c0,6.3,0.1,12.5,0.6,18.6c-28.3-2.6-59.3-9.5-88.9-24c-89.5-44-131.5-141.4-131.5-141.4
		s22.2-5.5,54.7-7.1c-13.1-30.1-18.2-52.5-18.2-52.5s105.9-5.8,185.3,54.6c8.9,6.7,17,13.9,24.4,21.6
		C366,421.8,356.6,465.8,356.6,512z"/>
	<path class="st2" d="M460.7,524.6c0,0-1.4,0.4-4.1,1v-1.4h3.8C460.5,524.3,460.7,524.6,460.7,524.6z"/>
	<path class="st2" d="M567.4,525.6V750c-16.8,16.6-35.4,31.4-55.4,44c-20.1-12.6-38.6-27.4-55.4-44V525.6c2.6-0.6,4.1-1,4.1-1
		s-0.1-0.4-0.2-0.5h103.2c-0.1,0.1-0.2,0.5-0.2,0.5S564.8,525,567.4,525.6z"/>
	<path class="st2" d="M460.7,524.6c0,0-1.4,0.4-4.1,1v-1.4h3.8C460.5,524.3,460.7,524.6,460.7,524.6z"/>
	<path class="st2" d="M512,794c-17.4,11.2-36,20.7-55.4,28.3V750C473.4,766.6,491.9,781.3,512,794z"/>
	<path class="st2" d="M567.4,750v72.3c-19.5-7.6-38-17.1-55.4-28.3C532.1,781.3,550.6,766.6,567.4,750z"/>
	<path class="st2" d="M567.4,524.1v1.4c-2.6-0.6-4.1-1-4.1-1s0.1-0.4,0.2-0.5H567.4z"/>
</g>
</svg>
