<?xml version="1.0" encoding="utf-8"?>
<!-- Generator: Adobe Illustrator 21.0.0, SVG Export Plug-In . SVG Version: 6.00 Build 0)  -->
<svg version="1.1" id="图层_1" xmlns="http://www.w3.org/2000/svg" xmlns:xlink="http://www.w3.org/1999/xlink" x="0px" y="0px"
	 viewBox="0 0 1024 1024" style="enable-background:new 0 0 1024 1024;" xml:space="preserve">
<style type="text/css">
	.st0{fill:#AD0000;}
</style>
<g>
	<path class="st0" d="M953.3,603.7h65.5C975.6,842.8,766.5,1024,515.1,1024c-282.7,0-512-229.3-512-512c0-282.7,229.3-512,512-512
		C771,0,983,187.8,1020.9,433.1h-65.2C918.5,223.8,735,64.3,515.1,64.3c-246.8,0-447.7,201-447.7,447.7
		c0,246.9,201,447.7,447.7,447.7C730.5,959.7,910.9,806.8,953.3,603.7z"/>
	<path class="st0" d="M836.4,603.7h50c-41,166.4-191.2,289.8-370.3,289.8c-210.8,0-381.5-170.8-381.5-381.5
		c0-210.8,170.8-381.5,381.5-381.5c183.8,0,337,129.8,373.4,302.7h-49.6c-35.3-145.9-167.1-254.5-323.7-254.5
		c-183.8,0-333.4,149.6-333.4,333.4s149.6,333.4,333.4,333.4C668.1,845.4,796.6,743,836.4,603.7z"/>
	<g>
		<path class="st0" d="M440.4,723.9c89.4,19.1,168-1.2,211.5-68.3c32.1-49.5,9.1-125.5,46.9-175.4c24.1-31.8-25.9-15-39.6-12.4
			c-14.8,2.7-20.7-2.6-20-13.3c2.7-42.5,60.5-123.1,83.8-118.2c-113.8-24.1-213.5,137.2-213.5,137.2s-25.4-77,21-172.8
			c3.5-7.2-1.6-7.9-5.6-7.2C305.1,327.4,263.5,507,325.2,638c17.7,37.6,49.8,67.4,60.4,72.2c6.3,2.8,14-3,12-9.6
			c-15.4-50.5-64.3-162.8,25.4-253.8c-3.9,4,3-4.5,4.7,1c4.7,14.9-10,67.3-8.4,92.4c3,46.2,2,61.2,15.7,84.7
			c2.4,4,6.5,12.2,14.1,8.4c0,0,42.4-9.7,78.4-64.1c10.7-16.1,14.8-1.5,15.8,6c1.5,12.1,0.5,46.3-17,71.6
			C481.6,711.7,440.4,723.9,440.4,723.9z"/>
	</g>
</g>
</svg>
