<svg id="图层_1" data-name="图层 1" xmlns="http://www.w3.org/2000/svg" xmlns:xlink="http://www.w3.org/1999/xlink" viewBox="0 0 1024 1024"><defs><style>.cls-1{fill:url(#未命名的渐变_70);}.cls-2{fill:url(#未命名的渐变_55);}</style><linearGradient id="未命名的渐变_70" x1="984.47" y1="-83.45" x2="444.69" y2="641.63" gradientUnits="userSpaceOnUse"><stop offset="0.15" stop-color="#a7664c"/><stop offset="0.3" stop-color="#a7664c"/><stop offset="1" stop-color="#73839b"/></linearGradient><linearGradient id="未命名的渐变_55" x1="910.29" y1="283.51" x2="251.1" y2="642.07" gradientUnits="userSpaceOnUse"><stop offset="0" stop-color="#a17261"/><stop offset="1" stop-color="#a7664c"/></linearGradient></defs><title>logo-渐变</title><path class="cls-1" d="M519.88,311.51C417.52,360.39,357.1,417.71,318.26,458s-71.34,123.33-12.41,171.34,177.67,41.19,264.52,5.46,188.47-95.54,238-176.8c38.83-63.65,48.39-92.43,48.39-92.43s111.79,4.84,166.88,41.19c3.85-2.23-21.34-42.56-58.56-65s-100.13-31-100.13-31-2-44.17-9.18-65.26c-4.34-12.53-23.95-17.37-31-31.76C809,182.47,794,147.86,739.36,122.17c-112.78-34.24-291.69,12.28-304.72,15.63a.38.38,0,0,0-.25.12,1.28,1.28,0,0,1-.5.12C418.76,141,157,199,44.56,453.94c-8.56,21.15-13,49.91-13.21,73.11-.25,28.78,4.24,65.48,16,109.86,11.17,49.63,56.09,104.17,56.09,104.17h0c-5.38-6.31-42.65-29.73-63.85-85.56-15-39.5-20-101.57-21.73-135.57-5.21,15.88-7.09,42.64-6.7,60.09,2.71,48.47,9.24,83,26.75,111.79,23.26,38.26,41.87,56.61,41.87,56.61s53.89,49.63,29.89,36C32.77,740.89-.65,668.77,0,621.44c-2.23,193.3,198.14,256.83,198.14,256.83s175.69,65.26,397.53,20.22c214.77-43.67,344.05-176.68,351.87-185-4.71,3.23-57.19,41.31-114.14,73.07-53.48,29.9-111.3,53-131.28,62.29-7.82,3.72,61.37-35,111.38-69.27,50.62-34.74,67.14-58.39,66-57.54-24.41,17.67-61,36.56-100.08,57.28-43.18,23-85.32,38.76-111.38,38.51-3.1,0,41.56-21.09,81.64-42.43,7.57-4,72-42.82,77.42-46.3-39,18.73-45,18.75-93.92,39.1-24.81,9.8-94.29,39.33-153.6,49.63-79.65,13.9-244.92,4.59-244.92,4.59s-153-12.28-189.83-120.35c-36.11-106.58,37.72-245.66,67.25-287.47S363.3,226.15,576.58,189.67c110.05-18.73,164.64,4.09,199.88,26.05,34.24,21.34,8.69,67.87,8.69,67.87S638,255.05,519.88,311.51Zm70.6,222.59c-52.73,36.35-203.23,90.7-220.23,54.22s81.52-134,81.52-134,44.42-38.83,107.2-73S716,330.86,743.21,350.22C764.92,380.49,643.21,497.62,590.48,534.09ZM623.79,138c-60.55,2.73-174.22,21.2-174.22,21.2,12.9-5.09,54.28-25.33,147.34-32.57,60.43-4.7,99.33,3.22,135.93,12.52S684.34,135.18,623.79,138Z"/><path class="cls-2" d="M965.2,342C928,319.41,865.08,311,865.08,311A219.28,219.28,0,0,0,826,295c-15-5-40.7-11.19-40.7-11.19S638.15,255.27,520,311.72C417.67,360.61,357.25,417.93,318.42,458.25S247.07,581.58,306,629.59s177.67,41.2,264.52,5.46,188.47-95.53,238-176.8c38.84-63.65,48.39-92.43,48.39-92.43s111.79,4.84,166.88,41.19C1027.61,404.78,1002.43,364.45,965.2,342ZM590.63,534.31C537.9,570.66,387.4,625,370.4,588.53s81.52-134,81.52-134,44.42-38.84,107.2-73,157.07-50.49,184.24-31.14C765.08,380.71,643.36,497.83,590.63,534.31Z"/></svg>
