<?xml version="1.0" encoding="utf-8"?>
<!-- Generator: Adobe Illustrator 21.0.0, SVG Export Plug-In . SVG Version: 6.00 Build 0)  -->
<svg version="1.1" id="图层_1" xmlns="http://www.w3.org/2000/svg" xmlns:xlink="http://www.w3.org/1999/xlink" x="0px" y="0px"
	 viewBox="0 0 700 700" style="enable-background:new 0 0 700 700;" xml:space="preserve">
<style type="text/css">
	.st0{fill-rule:evenodd;clip-rule:evenodd;fill:#448AD0;}
	.st1{fill-rule:evenodd;clip-rule:evenodd;fill:#FFFFFF;}
</style>
<path class="st0" d="M560.5,544c0,0-164.6,123.9-207,125c-30-0.5-177.2-92.2-216-131c-31.1-29.3-47.9-50.4-47-100V114
	c-1-10.8,11.8-21.6,30.5-29.9c0,0,108.5-53.8,228.5-53.1c137.8,0.7,238,57,238,57c13.1,7,22,15,22,26v324
	C609.5,470.4,609.9,502,560.5,544L560.5,544z M547.5,138c0,0-73.4-44-195.5-45c-99.4-0.8-199.5,45-199.5,45v325c0,0,0.4,17.7,83,71
	c57.9,33.1,112.9,69,120.3,69c7.7,0,69.9-38.3,120.7-74c69.9-49.1,71-66,71-66V138L547.5,138z"/>
<path class="st0" d="M203.5,212c0,0,39-5.1,77-19c35.4-13,69-35,69-35c0,0,31.7,22.1,69,36c35.1,13.1,77,18,77,18v168
	c0,0-7.1,23.5-24,50c-27.5,43.2-74,72.4-122,93c-45.4-21.8-92.5-54.1-118-85c-24.3-29.5-28-58-28-58V212L203.5,212z"/>
<polygon class="st1" points="262,367 259,363 323,316 326,320 262,367 "/>
<polygon class="st1" points="369.9,365.1 367.2,360.9 438.2,315.9 440.9,320.1 369.9,365.1 "/>
<polygon class="st1" points="319.7,319.8 323.3,316.3 369.3,363.3 365.7,366.8 319.7,319.8 "/>
<path class="st1" d="M323.5,304.1c7.2,0,13.1,5.9,13.1,13.1c0,7.2-5.9,13.1-13.1,13.1c-7.2,0-13.1-5.9-13.1-13.1
	C310.4,309.9,316.2,304.1,323.5,304.1L323.5,304.1z"/>
<path class="st1" d="M438.6,304.8c7.2,0,13.1,5.9,13.1,13.1c0,7.2-5.9,13.1-13.1,13.1c-7.2,0-13.1-5.9-13.1-13.1
	C425.5,310.7,431.4,304.8,438.6,304.8L438.6,304.8z"/>
<path class="st1" d="M368,349.4c7.2,0,13.1,5.9,13.1,13.1s-5.9,13.1-13.1,13.1c-7.2,0-13.1-5.9-13.1-13.1S360.7,349.4,368,349.4
	L368,349.4z"/>
<path class="st1" d="M261.5,351.7c7.2,0,13.1,5.9,13.1,13.1c0,7.2-5.9,13.1-13.1,13.1c-7.2,0-13.1-5.9-13.1-13.1
	C248.4,357.6,254.3,351.7,261.5,351.7L261.5,351.7z"/>
</svg>
