<?xml version="1.0" encoding="utf-8"?>
<!-- Generator: Adobe Illustrator 21.0.0, SVG Export Plug-In . SVG Version: 6.00 Build 0)  -->
<svg version="1.1" id="图层_1" xmlns="http://www.w3.org/2000/svg" xmlns:xlink="http://www.w3.org/1999/xlink" x="0px" y="0px"
	 viewBox="0 0 1024 1030.1" style="enable-background:new 0 0 1024 1030.1;" xml:space="preserve">
<style type="text/css">
	.st0{fill:#448AD0;}
	.st1{fill:#FFFFFF;}
</style>
<g>
	<path class="st0" d="M849.9,826.4c0,0-264.2,198.9-332.2,200.6c-48.1-0.8-284.4-148-346.7-210.3c-49.9-47-76.9-80.9-75.4-160.5
		v-520c-1.6-17.3,18.9-34.7,49-48c0,0,174.1-86.3,366.7-85.2c221.2,1.1,382,91.5,382,91.5c21,11.2,35.3,24.1,35.3,41.7v520
		C928.5,708.3,929.2,759,849.9,826.4L849.9,826.4z M829,174.8c0,0-117.8-70.6-313.8-72.2c-159.5-1.3-320.2,72.2-320.2,72.2v521.6
		c0,0,0.6,28.4,133.2,114c92.9,53.1,181.2,110.7,193.1,110.7c12.4,0,112.2-61.5,193.7-118.8c112.2-78.8,114-105.9,114-105.9V174.8
		L829,174.8z"/>
	<path class="st0" d="M276.9,293.6c0,0,62.6-8.2,123.6-30.5c56.8-20.9,110.7-56.2,110.7-56.2s50.9,35.5,110.7,57.8
		c56.3,21,123.6,28.9,123.6,28.9v269.6c0,0-11.4,37.7-38.5,80.2c-44.1,69.3-118.8,116.2-195.8,149.3
		c-72.9-35-148.5-86.8-189.4-136.4c-39-47.3-44.9-93.1-44.9-93.1V293.6L276.9,293.6z"/>
	<polygon class="st1" points="370.8,542.3 366,535.9 468.7,460.5 473.5,466.9 	"/>
	<polygon class="st1" points="544,539.3 539.6,532.6 653.6,460.3 657.9,467.1 	"/>
	<polygon class="st1" points="463.4,466.6 469.2,461 543,536.4 537.2,542 	"/>
	<path class="st1" d="M469.5,441.4c11.6,0,21,9.5,21,21s-9.5,21-21,21c-11.6,0-21-9.5-21-21C448.5,450.7,457.8,441.4,469.5,441.4
		L469.5,441.4z"/>
	<path class="st1" d="M654.2,442.5c11.6,0,21,9.5,21,21s-9.5,21-21,21c-11.6,0-21-9.5-21-21C633.2,452,642.7,442.5,654.2,442.5
		L654.2,442.5z"/>
	<path class="st1" d="M540.9,514.1c11.6,0,21,9.5,21,21c0,11.6-9.5,21-21,21c-11.6,0-21-9.5-21-21
		C519.9,523.6,529.2,514.1,540.9,514.1L540.9,514.1z"/>
	<path class="st1" d="M370,517.8c11.6,0,21,9.5,21,21c0,11.6-9.5,21-21,21s-21-9.5-21-21C349,527.3,358.4,517.8,370,517.8L370,517.8
		z"/>
</g>
</svg>
