<svg t="1569828847949" class="icon" viewBox="0 0 1024 1024" version="1.1" xmlns="http://www.w3.org/2000/svg" p-id="17678" width="200" height="200"><path d="M508.696774 16.516129C300.593548 16.516129 128.825806 188.283871 128.825806 399.690323c0 198.193548 313.806452 551.63871 350.141936 591.277419 9.909677 9.909677 19.819355 13.212903 33.032258 13.212903s23.122581-6.606452 33.032258-16.516129C581.367742 951.329032 891.870968 594.580645 891.870968 396.387097 891.870968 184.980645 720.103226 16.516129 508.696774 16.516129z m3.303226 548.335484c-85.883871 0-155.251613-69.367742-155.251613-151.948387 0-85.883871 69.367742-155.251613 155.251613-155.251613s155.251613 69.367742 155.251613 151.948387c-3.303226 85.883871-69.367742 155.251613-155.251613 155.251613z m0 0" fill="#0092F5" p-id="17679"></path></svg>