<?xml version="1.0" encoding="utf-8"?>
<!-- Generator: Adobe Illustrator 21.0.0, SVG Export Plug-In . SVG Version: 6.00 Build 0)  -->
<svg version="1.1" id="图层_1" xmlns="http://www.w3.org/2000/svg" xmlns:xlink="http://www.w3.org/1999/xlink" x="0px" y="0px"
	 viewBox="0 0 1024 1024" style="enable-background:new 0 0 1024 1024;" xml:space="preserve">
<style type="text/css">
	.st0{fill:#AD0000;}
</style>
<path class="st0" d="M911.2,595h59.3c-39.1,216.2-228.3,380.1-455.7,380.1C259,975.1,51.7,767.7,51.7,512
	C51.7,256.3,259,48.9,514.8,48.9c231.5,0,423.3,169.9,457.6,391.7h-59C879.6,251.3,713.7,107,514.8,107c-223.2,0-405,181.8-405,405
	c0,223.3,181.8,405,405,405C709.6,917,872.8,778.6,911.2,595z"/>
<path class="st0" d="M805.4,595h45.2c-37.1,150.5-172.9,262.1-334.9,262.1c-190.6,0-345.1-154.5-345.1-345.1
	c0-190.6,154.5-345.1,345.1-345.1c166.2,0,304.9,117.4,337.7,273.8h-44.9c-32-131.9-151.1-230.2-292.8-230.2
	c-166.2,0-301.5,135.3-301.5,301.5s135.3,301.5,301.5,301.5C653.2,813.5,769.4,720.9,805.4,595z"/>
<g>
	<path class="st0" d="M447.2,703.6c80.8,17.3,152-1.1,191.3-61.8c29.1-44.8,8.2-113.5,42.4-158.6c21.8-28.8-23.4-13.6-35.8-11.3
		c-13.4,2.5-18.8-2.3-18.1-12c2.5-38.4,54.7-111.4,75.8-106.9c-102.9-21.8-193.1,124.1-193.1,124.1s-23-69.6,19-156.3
		c3.1-6.5-1.5-7.1-5.1-6.5C324.9,345,287.2,507.4,343,626c16,34,45,61,54.7,65.3c5.7,2.5,12.7-2.7,10.8-8.7
		c-13.9-45.7-58.1-147.2,23-229.6c-3.6,3.6,2.7-4.1,4.2,0.9c4.2,13.5-9,60.9-7.6,83.6c2.7,41.8,1.8,55.4,14.2,76.6
		c2.1,3.7,5.9,11,12.8,7.6c0,0,38.4-8.8,70.9-57.9c9.6-14.6,13.4-1.4,14.3,5.5c1.3,10.9,0.4,41.8-15.4,64.8
		C484.5,692.6,447.2,703.6,447.2,703.6z"/>
</g>
</svg>
